<svg width="180" height="50" viewBox="0 0 180 50" fill="none" xmlns="http://www.w3.org/2000/svg">
<path d="M100.836 8.6013C100.832 7.57716 100.851 6.58509 100.892 5.62509C100.932 4.74578 101.357 4.02578 102.168 3.46509C102.253 3.40716 102.316 3.33268 102.357 3.24165C102.599 2.71716 102.506 2.17096 102.916 1.70544C103.495 1.04751 104.22 0.717507 105.091 0.715438C108.646 0.713369 111.839 0.707162 114.672 0.696817C116.41 0.690611 117.756 1.4044 117.756 3.30682C117.754 11.3613 117.754 19.361 117.756 27.3058C117.756 27.8179 117.651 28.3206 117.471 28.7985C117.392 29.0075 117.363 29.2216 117.384 29.441C117.469 30.3389 117.341 31.1841 116.999 31.9765C116.96 32.0675 116.978 32.1461 117.052 32.2123C117.493 32.6034 117.717 33.1485 117.725 33.8479C117.742 34.8865 117.755 35.9241 117.766 36.9606C117.768 37.1654 117.823 37.181 117.93 37.0072C117.976 36.9306 118.001 36.8458 118.005 36.7527C118.007 36.708 118.022 36.6639 118.048 36.6254L127.473 22.5389C127.542 22.4354 127.542 22.332 127.473 22.2285C126.795 21.2065 126.122 20.3013 125.456 19.513C125.129 19.1282 124.879 18.6513 124.705 18.0823C124.564 17.6189 124.536 17.1741 124.621 16.7479C124.803 15.8354 125.299 15.2034 126.108 14.8516C126.211 14.8082 126.28 14.7327 126.313 14.6251C126.459 14.1627 126.437 13.6723 126.747 13.2782C127.211 12.6927 127.826 12.3979 128.594 12.3937C130.745 12.3792 133.017 12.3782 135.409 12.3906C135.502 12.3906 135.574 12.3523 135.626 12.2758C137.254 9.85923 138.824 7.44475 140.334 5.03233C140.582 4.6382 140.939 4.32785 141.16 3.93061C141.619 3.09889 142.134 2.33027 142.705 1.62475C143.332 0.85199 144.238 0.718542 145.163 0.712335C147.565 0.693714 149.553 0.70199 151.128 0.737162C151.554 0.747507 151.966 0.875783 152.363 1.12199C152.655 1.30406 152.957 1.62164 153.269 2.07475C154.329 3.60785 155.35 5.16578 156.332 6.74854C156.512 7.03613 156.702 7.29475 156.9 7.5244C157.211 7.8813 157.31 8.2444 157.571 8.63233C158.855 10.5461 160.095 12.4351 161.289 14.2992C162.342 15.9441 163.456 17.6499 164.631 19.4168C165.452 20.6499 166.302 21.9554 167.179 23.3334C168.042 24.6906 168.895 25.9899 169.739 27.2313C170.043 27.6751 170.062 28.0568 170.174 28.5503C170.201 28.6785 170.269 28.7789 170.379 28.8513C170.786 29.1244 171.179 29.5423 171.558 30.1051C172.179 31.0299 172.74 31.9165 173.243 32.7647C173.476 33.1589 173.876 33.4196 174.025 33.8479C174.087 34.0279 174.171 34.1944 174.276 34.3475C175.648 36.3503 176.904 38.2651 178.044 40.092C178.385 40.6403 178.72 41.1285 179.046 41.5568C179.454 42.0865 179.712 42.6244 179.819 43.1706C179.943 43.7975 179.815 44.3954 179.434 44.9644C179.38 45.0448 179.355 45.1422 179.363 45.2406C179.4 45.7185 179.596 46.0816 179.549 46.5813C179.471 47.4275 179.117 48.0989 178.488 48.5954C177.988 48.9896 176.871 49.2565 176.244 49.2596C172.7 49.2658 169.033 49.2627 165.242 49.2503C163.895 49.2461 162.829 48.6254 162.043 47.3882C160.603 45.1289 159.23 43.0103 157.924 41.0323C157.735 40.7468 157.586 40.3775 157.341 40.1758C157.258 40.1075 157.164 40.0785 157.059 40.0889C154.926 40.2782 152.112 40.2658 151.891 37.5565C151.813 36.5737 151.794 35.4854 151.835 34.2916C151.86 33.5882 152.031 32.9644 152.348 32.4203C152.397 32.3334 152.395 32.2485 152.341 32.1658L146.951 23.8268C146.939 23.8095 146.923 23.7953 146.905 23.7857C146.886 23.776 146.866 23.7713 146.845 23.7719C146.824 23.7726 146.804 23.7785 146.787 23.7892C146.77 23.7999 146.755 23.815 146.746 23.833C146.264 24.6896 145.764 25.4665 145.247 26.1637C144.57 27.0761 142.578 27.1847 141.61 27.0823C141.485 27.0679 141.388 27.1134 141.318 27.2189L136.045 35.353C135.973 35.4627 135.944 35.5827 135.958 35.713C136.039 36.4434 135.853 37.1582 135.4 37.8575C135.348 37.9382 135.32 38.0272 135.316 38.1244C135.294 38.5651 135.539 38.9127 135.446 39.3534C135.334 39.881 135.269 40.4178 134.94 40.8772C133.24 43.2503 131.537 45.5758 129.832 47.8537C129.422 48.402 128.903 48.791 128.274 49.0206C127.887 49.1634 127.245 49.2379 126.347 49.2441C123.767 49.2627 120.897 49.2679 117.738 49.2596C117.38 49.2596 117.046 49.2234 116.735 49.151C116.32 49.0516 115.873 48.8716 115.451 48.9803C114.911 49.123 114.395 49.2689 113.828 49.2658C110.699 49.2534 107.722 49.2554 104.896 49.272C104.207 49.2751 103.481 49.1479 102.844 48.9213C102.331 48.7392 101.872 48.3275 101.466 47.6861C101.393 47.5724 101.353 47.4415 101.349 47.3075C101.344 47.171 101.311 47.0416 101.249 46.9196C101.189 46.7996 101.149 46.8058 101.128 46.9382C100.843 48.7785 99.0148 49.303 97.3948 49.2999C94.0927 49.2916 90.9417 49.2823 87.9417 49.272C86.5886 49.2658 85.5789 48.6699 84.9127 47.4844C84.0851 46.0051 83.211 44.3872 82.2903 42.6306C82.2654 42.5828 82.2295 42.5417 82.1857 42.5109C82.1419 42.4801 82.0916 42.4605 82.0389 42.4537C80.391 42.2365 79.8572 40.7872 79.1372 39.5241C77.9206 37.393 76.6979 35.2558 75.4689 33.1123C75.3158 32.8434 75.2434 32.5806 75.2517 32.3241C75.2529 32.2939 75.2481 32.2639 75.2374 32.2357C75.2267 32.2075 75.2105 32.1817 75.1896 32.16C75.1687 32.1383 75.1437 32.121 75.1159 32.1092C75.0882 32.0973 75.0584 32.0913 75.0282 32.0913L65.0941 32.0882C65.0745 32.0882 65.0551 32.092 65.0371 32.0995C65.019 32.107 65.0026 32.118 64.9887 32.1318C64.9749 32.1457 64.9639 32.1621 64.9565 32.1802C64.949 32.1982 64.9451 32.2176 64.9451 32.2372C64.9472 36.0668 64.9451 39.8189 64.9389 43.4934C64.9389 44.2599 64.4237 44.8247 64.4579 45.5634C64.4951 46.3103 64.3772 46.992 64.1041 47.6085C63.8041 48.2851 63.2775 48.7516 62.5244 49.0082C61.9451 49.2048 61.3162 49.302 60.6375 49.2999C57.652 49.2875 54.6851 49.2813 51.7368 49.2813C51.1627 49.2813 50.5482 49.092 50.002 48.9027C49.9297 48.8785 49.8519 48.8796 49.7817 48.9058C49.2137 49.1199 48.5682 49.2875 47.9568 49.2875C36.1637 49.2772 25.0606 49.2823 14.6475 49.303C12.6241 49.3092 10.6875 49.1572 8.80374 48.3999C8.30098 48.1992 7.79615 48.0203 7.28925 47.863C6.76788 47.7016 6.37477 47.381 6.10994 46.901C6.05822 46.8099 5.98374 46.7458 5.8865 46.7085C5.48305 46.5513 5.03408 46.2482 4.5396 45.7992C1.6265 43.151 0.161669 39.8385 0.145117 35.862C0.130634 32.2703 0.131669 28.661 0.148221 25.0341C0.152359 23.9065 0.554772 23.0096 1.35546 22.3434C1.83339 21.9461 1.77443 21.6389 1.94512 21.133C2.2327 20.2744 2.78305 19.7758 3.59615 19.6372C3.72236 19.6144 3.7865 19.5389 3.78857 19.4106L3.79167 18.5354C3.79167 18.401 3.72443 18.3358 3.58994 18.3399C3.04167 18.3544 2.51098 18.2685 1.99788 18.0823C0.573393 17.5703 0.160634 15.7703 0.31891 14.4358C0.503048 12.8923 1.03581 11.3737 1.91719 9.87992C2.96822 8.09647 3.89512 6.69371 4.69788 5.67164C6.40788 3.49302 8.54305 1.92889 11.2834 1.23682C12.1089 1.02785 13.0234 0.924404 14.0268 0.926473C26.273 0.947162 38.0248 0.948197 49.282 0.929576C49.8241 0.929576 50.3072 1.05371 50.7313 1.30199C50.7996 1.3413 50.8637 1.33613 50.9237 1.28647C51.3893 0.905783 51.9179 0.715438 52.5096 0.715438C65.0124 0.709231 77.2555 0.708197 89.2389 0.712335C90.0365 0.712335 90.7596 0.85199 91.5293 0.976128C92.3827 1.11578 93.2982 1.54716 94.0989 1.88854C96.443 2.88371 98.2886 4.41371 99.6355 6.47854C100.107 7.20061 100.437 7.91751 100.625 8.62923C100.77 9.17751 100.841 9.1682 100.836 8.6013ZM97.4475 39.2634L99.7472 39.2696C99.7865 39.2696 99.8061 39.2499 99.8061 39.2106L99.7937 36.6316C99.7937 36.5613 99.7586 36.5261 99.6882 36.5261L95.7655 36.5385C95.6186 36.5406 95.5099 36.4765 95.4396 36.3461L92.4355 30.8096C92.2617 30.4868 92.3517 30.371 92.7055 30.462C92.8958 30.5116 93.0955 30.5292 93.3044 30.5147C93.4906 30.5023 93.5361 30.4165 93.441 30.2572L91.4796 26.9489C91.3989 26.8103 91.2779 26.742 91.1165 26.7441C91.0524 26.7461 90.9965 26.7244 90.9489 26.6789C90.7979 26.5279 90.8268 26.4275 91.0358 26.3779C94.8882 25.4903 97.4041 23.2496 98.5834 19.6558C98.8565 18.8261 98.9775 17.9334 98.9465 16.9775C98.901 15.5665 98.902 14.1068 98.9496 12.5985C99.0613 9.09475 97.702 6.46923 94.5955 4.60716C93.652 4.04233 92.6217 3.58923 91.5044 3.24785C90.6789 2.99544 89.7748 2.86923 88.792 2.86923C76.3389 2.88371 64.1858 2.88682 52.3327 2.87854C52.2189 2.87854 52.162 2.93544 52.162 3.04923L52.1589 28.6434C52.1589 28.7303 52.2024 28.7737 52.2892 28.7737L54.0644 28.7799C54.1968 28.7799 54.263 28.8461 54.263 28.9785V38.0996C54.263 38.2113 54.2072 38.2672 54.0955 38.2672L52.3855 38.2641C52.2324 38.262 52.1558 38.3375 52.1558 38.4906L52.1527 43.5616C52.1527 43.6672 52.2055 43.7199 52.311 43.7199L62.5555 43.723C62.5859 43.723 62.6151 43.7106 62.6367 43.6885C62.6582 43.6664 62.6703 43.6364 62.6703 43.6051L62.6672 26.7503C62.6672 26.6178 62.7344 26.5516 62.8689 26.5516H79.041C79.0877 26.5517 79.1338 26.5633 79.175 26.5855C79.2161 26.6077 79.2511 26.6398 79.2768 26.6789L80.5617 28.603C80.5735 28.6209 80.5803 28.6416 80.5812 28.663C80.5821 28.6844 80.5773 28.7056 80.567 28.7244C80.5568 28.7432 80.5417 28.7589 80.5233 28.7698C80.5048 28.7807 80.4838 28.7863 80.4624 28.7861L79.0751 28.7675C78.893 28.7654 78.8465 28.8441 78.9355 29.0034L83.4603 36.9079C83.5182 37.0092 83.6051 37.0599 83.721 37.0599L84.801 37.0506C84.9251 37.0485 85.0161 37.1023 85.0741 37.212L88.4351 43.5647C88.4889 43.6682 88.5748 43.7199 88.6927 43.7199L99.3313 43.723C99.3464 43.7234 99.3612 43.7197 99.3743 43.7123C99.3874 43.705 99.3984 43.6942 99.4062 43.6811C99.4141 43.668 99.4184 43.6529 99.4189 43.6374C99.4193 43.6219 99.4159 43.6065 99.4089 43.5927L97.3017 39.5023C97.221 39.343 97.2696 39.2634 97.4475 39.2634ZM104.663 27.6223C104.663 27.6536 104.651 27.6836 104.629 27.7057C104.606 27.7278 104.576 27.7403 104.545 27.7403L102.466 27.7341C102.45 27.7341 102.435 27.7371 102.421 27.743C102.406 27.749 102.393 27.7576 102.382 27.7686C102.371 27.7796 102.363 27.7926 102.357 27.8069C102.351 27.8212 102.348 27.8365 102.348 27.852V33.1341C102.348 33.1495 102.351 33.1649 102.357 33.1792C102.363 33.1935 102.371 33.2065 102.382 33.2174C102.393 33.2284 102.406 33.2371 102.421 33.243C102.435 33.2489 102.45 33.252 102.466 33.252L104.772 33.2272C104.787 33.2272 104.802 33.2302 104.817 33.2361C104.831 33.2421 104.844 33.2508 104.855 33.2617C104.866 33.2727 104.875 33.2857 104.881 33.3C104.887 33.3143 104.89 33.3296 104.89 33.3451V43.5834C104.89 43.6146 104.902 43.6446 104.924 43.6668C104.946 43.6889 104.976 43.7013 105.008 43.7013H115.454C115.485 43.7013 115.515 43.6889 115.537 43.6668C115.559 43.6446 115.572 43.6146 115.572 43.5834L115.565 33.7672C115.565 33.7359 115.553 33.7059 115.531 33.6838C115.509 33.6617 115.479 33.6492 115.448 33.6492L113.067 33.6399C113.036 33.6399 113.006 33.6275 112.984 33.6054C112.962 33.5833 112.949 33.5533 112.949 33.522L112.952 27.9761C112.952 27.9449 112.965 27.9149 112.987 27.8927C113.009 27.8706 113.039 27.8582 113.07 27.8582H115.448C115.479 27.8582 115.509 27.8458 115.531 27.8237C115.553 27.8015 115.565 27.7715 115.565 27.7403L115.562 2.99958C115.562 2.9683 115.55 2.9383 115.528 2.91619C115.506 2.89407 115.476 2.88164 115.444 2.88164H104.778C104.747 2.88164 104.717 2.89407 104.694 2.91619C104.672 2.9383 104.66 2.9683 104.66 2.99958L104.663 27.6223ZM121.611 37.5472C121.63 37.5465 121.649 37.5511 121.666 37.5604C121.683 37.5696 121.696 37.5833 121.706 37.5999C121.716 37.6165 121.72 37.6353 121.72 37.6545C121.72 37.6736 121.714 37.6923 121.704 37.7085L117.961 43.5399C117.951 43.5557 117.946 43.5738 117.945 43.5924C117.945 43.611 117.949 43.6295 117.958 43.6458C117.967 43.6622 117.98 43.676 117.996 43.6857C118.011 43.6955 118.03 43.7008 118.048 43.7013H128.358C128.374 43.7011 128.39 43.697 128.405 43.6895C128.419 43.6819 128.432 43.6711 128.442 43.6579L133.708 36.4144C133.72 36.3988 133.726 36.3803 133.728 36.361C133.73 36.3418 133.726 36.3224 133.717 36.3051C133.709 36.2878 133.695 36.2733 133.679 36.263C133.663 36.2527 133.644 36.2471 133.624 36.2468L131.483 36.2623C131.464 36.2622 131.445 36.2569 131.429 36.247C131.413 36.2371 131.399 36.223 131.39 36.2061C131.381 36.1892 131.377 36.1702 131.378 36.1512C131.379 36.1321 131.385 36.1137 131.396 36.0979L140.852 21.5923C140.862 21.5771 140.875 21.5645 140.891 21.5558C140.907 21.5471 140.924 21.5426 140.942 21.5427L144.099 21.5613C144.117 21.5614 144.134 21.5569 144.15 21.5482C144.166 21.5395 144.179 21.5269 144.189 21.5116L147.754 15.8665C147.764 15.8517 147.777 15.8396 147.793 15.8313C147.808 15.8229 147.825 15.8185 147.843 15.8185C147.86 15.8185 147.878 15.8229 147.893 15.8313C147.909 15.8396 147.922 15.8517 147.931 15.8665L156.05 28.4479C156.059 28.4631 156.073 28.4757 156.088 28.4844C156.104 28.4931 156.122 28.4976 156.14 28.4975H167.741C167.76 28.498 167.779 28.4931 167.796 28.4834C167.813 28.4738 167.826 28.4597 167.836 28.4427C167.845 28.4257 167.849 28.4065 167.849 28.3871C167.848 28.3678 167.841 28.3491 167.831 28.333L151.252 2.9282C151.242 2.91395 151.229 2.90226 151.214 2.89415C151.199 2.88604 151.182 2.88174 151.165 2.88164H144.474C144.457 2.88174 144.44 2.88604 144.425 2.89415C144.41 2.90226 144.397 2.91395 144.387 2.9282L136.836 14.5537C136.827 14.568 136.814 14.5796 136.799 14.5878C136.784 14.5959 136.767 14.6002 136.75 14.6003L128.563 14.591C128.543 14.5908 128.523 14.5963 128.506 14.6067C128.49 14.6171 128.476 14.6321 128.467 14.65C128.458 14.6678 128.455 14.6877 128.457 14.7075C128.459 14.7273 128.467 14.746 128.479 14.7616L130.533 17.4461C130.543 17.4588 130.556 17.469 130.571 17.476C130.585 17.483 130.601 17.4866 130.617 17.4865L134.605 17.4803C134.624 17.4802 134.643 17.4852 134.659 17.4947C134.675 17.5042 134.689 17.5179 134.698 17.5344C134.707 17.5509 134.712 17.5695 134.711 17.5884C134.711 17.6072 134.705 17.6256 134.695 17.6416L132.458 21.2354C132.448 21.2507 132.435 21.2633 132.419 21.272C132.403 21.2807 132.386 21.2852 132.368 21.2851L131.036 21.282C131.019 21.2821 131.002 21.2864 130.987 21.2945C130.972 21.3026 130.959 21.3143 130.949 21.3285L120.165 37.4354C120.154 37.4517 120.148 37.4707 120.147 37.4904C120.146 37.51 120.151 37.5294 120.16 37.5465C120.17 37.5636 120.184 37.5777 120.202 37.5871C120.219 37.5965 120.238 37.601 120.258 37.5999L121.611 37.5472ZM46.6286 42.2737L9.62305 42.2675C9.30443 42.2675 9.28581 42.343 9.56719 42.4941C11.0879 43.3041 12.7606 43.7292 14.4893 43.7261C26.2327 43.722 37.8893 43.722 49.4589 43.7261C49.505 43.7261 49.5492 43.7078 49.5818 43.6752C49.6144 43.6426 49.6327 43.5984 49.6327 43.5523L49.6296 35.713C49.6296 35.6427 49.5944 35.6075 49.5241 35.6075C39.2372 35.6075 28.8893 35.6065 18.4803 35.6044C16.5437 35.6044 14.8617 34.2389 14.871 32.2278C14.8855 29.0499 14.8875 25.9827 14.8772 23.0261C14.8772 22.9061 14.9362 22.8461 15.0541 22.8461L18.1544 22.8616C18.1799 22.8616 18.2044 22.8515 18.2225 22.8335C18.2405 22.8154 18.2506 22.791 18.2506 22.7654L18.2475 12.0554C18.2475 12.02 18.2616 11.9861 18.2866 11.9611C18.3116 11.936 18.3456 11.922 18.381 11.922L49.521 11.9251C49.5934 11.9251 49.6296 11.8879 49.6296 11.8134L49.6327 3.29751C49.6327 3.26705 49.6206 3.23785 49.5991 3.21631C49.5775 3.19478 49.5483 3.18268 49.5179 3.18268C37.4206 3.19302 25.5303 3.19199 13.8468 3.17958C12.0437 3.17647 10.2624 3.62337 8.84719 4.68165C6.07063 6.75889 4.46098 9.3513 4.01822 12.4589C4.01333 12.4936 4.01585 12.529 4.02561 12.5626C4.03537 12.5962 4.05214 12.6273 4.07479 12.6538C4.09744 12.6802 4.12544 12.7015 4.15691 12.716C4.18837 12.7306 4.22257 12.7382 4.25719 12.7382H7.45374C7.56132 12.7382 7.61512 12.793 7.61512 12.9027L7.61822 21.6141C7.61822 21.7423 7.55408 21.8065 7.42581 21.8065L3.99029 21.791C3.95737 21.791 3.92579 21.8044 3.90251 21.8282C3.87923 21.8521 3.86615 21.8844 3.86615 21.9182C3.90132 24.8747 3.89719 28.1406 3.85374 31.7158C3.83098 33.4847 3.98925 34.9247 4.32857 36.0358C4.89132 37.8751 5.88029 39.4847 7.29546 40.8647C7.57167 41.1316 7.83236 41.3737 8.24201 41.3737C20.5027 41.3696 32.9672 41.3675 45.6355 41.3675C45.8361 41.3675 46.011 41.4347 46.1599 41.5692L46.7093 42.0658C46.8624 42.2044 46.8355 42.2737 46.6286 42.2737ZM19.6658 26.8527C19.5106 27.2003 19.2417 27.5189 18.8589 27.8085C18.3624 28.1872 17.7944 28.1903 17.2234 28.3485C17.1745 28.3621 17.1313 28.3912 17.1005 28.4316C17.0697 28.4719 17.0529 28.5212 17.0527 28.572L17.0496 32.0789C17.0496 32.257 17.0847 32.4333 17.1528 32.5979C17.221 32.7624 17.3209 32.9119 17.4468 33.0379C17.5728 33.1638 17.7223 33.2637 17.8868 33.3319C18.0514 33.4 18.2277 33.4351 18.4058 33.4351H49.0927C49.1094 33.4348 49.1257 33.4296 49.1396 33.4202C49.1535 33.4108 49.1644 33.3976 49.1709 33.3822C49.1775 33.3668 49.1794 33.3498 49.1766 33.3334C49.1737 33.3168 49.1661 33.3015 49.1548 33.2892C48.9499 33.0813 48.7079 32.8578 48.6551 32.5568C48.562 31.9951 48.3634 31.4923 48.3603 30.9151C48.3396 26.4275 48.3458 22.0103 48.3789 17.6634C48.3789 17.5413 48.3189 17.4803 48.1989 17.4803L20.5534 17.4834C20.5205 17.4834 20.4889 17.4961 20.4656 17.5188C20.4423 17.5415 20.4293 17.5723 20.4293 17.6044C20.4148 19.0175 20.4179 20.4513 20.4386 21.9058C20.4541 22.9144 20.0662 23.7523 20.0724 24.7361C20.0755 25.4034 19.9358 26.2537 19.6658 26.8527ZM100.517 22.4644C100.049 24.1485 99.3882 25.601 98.5337 26.8216C97.8717 27.7651 96.9406 28.691 95.7406 29.5992C95.6289 29.6841 95.5875 29.7947 95.6165 29.9313C95.722 30.4465 95.6723 30.9575 95.4675 31.4644C95.45 31.5071 95.442 31.5531 95.4442 31.5992C95.4463 31.6453 95.4585 31.6904 95.4799 31.7313L96.7865 34.2265C96.832 34.3154 96.9013 34.3599 96.9944 34.3599L98.3506 34.3537C98.4768 34.3516 98.541 34.2875 98.543 34.1613C98.5617 33.1185 98.5689 32.0851 98.5648 31.061C98.5606 30.2851 98.7975 29.502 99.2755 28.7116C99.502 28.3361 99.9148 28.1716 100.185 27.8303C100.239 27.7612 100.274 27.6785 100.284 27.5913C100.344 27.0782 100.501 26.6044 100.756 26.1699C100.81 26.0768 100.838 25.9754 100.84 25.8658L100.886 20.1989C100.886 20.1865 100.88 20.1803 100.868 20.1803L100.784 20.1741C100.749 20.172 100.73 20.1896 100.728 20.2268C100.688 20.9841 100.725 21.7072 100.517 22.4644ZM159.991 34.7199L165.686 43.5461C165.754 43.6496 165.851 43.7013 165.975 43.7013H177.665C177.763 43.7013 177.784 43.661 177.731 43.5803L169.488 30.9741C169.453 30.9197 169.404 30.8751 169.347 30.8442C169.291 30.8133 169.227 30.7971 169.162 30.7972C165.608 30.7992 161.976 30.8013 158.269 30.8034C158.07 30.8034 157.875 30.9058 157.729 31.033C157.642 31.1075 157.542 31.1447 157.428 31.1447L155.904 31.1416C155.776 31.1416 155.712 31.2058 155.712 31.3341V34.3941C155.712 34.5037 155.766 34.5585 155.876 34.5585L159.687 34.5554C159.748 34.5554 159.808 34.5704 159.861 34.5991C159.914 34.6279 159.959 34.6694 159.991 34.7199ZM101.082 45.011C101.079 45.0026 101.073 44.9955 101.066 44.9907C101.058 44.986 101.049 44.9837 101.04 44.9844C101.032 44.9851 101.023 44.9887 101.017 44.9946C101.01 45.0006 101.006 45.0085 101.004 45.0172C100.988 45.2779 101.005 45.5416 101.057 45.8085C101.088 45.9658 101.115 45.9658 101.138 45.8085C101.177 45.5458 101.158 45.2799 101.082 45.011Z" fill="#1E1E1E"/>
<path d="M97.4462 39.263L99.7459 39.2692C99.7852 39.2692 99.8048 39.2496 99.8048 39.2103L99.7924 36.6313C99.7924 36.561 99.7573 36.5258 99.6869 36.5258L95.7642 36.5382C95.6173 36.5403 95.5086 36.4761 95.4383 36.3458L92.4342 30.8092C92.2604 30.4865 92.3504 30.3706 92.7042 30.4617C92.8945 30.5113 93.0942 30.5289 93.3031 30.5144C93.4893 30.502 93.5348 30.4161 93.4397 30.2568L91.4783 26.9486C91.3976 26.8099 91.2766 26.7417 91.1152 26.7437C91.0511 26.7458 90.9952 26.7241 90.9476 26.6786C90.7966 26.5275 90.8255 26.4272 91.0345 26.3775C94.8869 25.4899 97.4028 23.2492 98.5821 19.6554C98.8552 18.8258 98.9762 17.933 98.9452 16.9772C98.8997 15.5661 98.9007 14.1065 98.9483 12.5982C99.06 9.09441 97.7007 6.4689 94.5942 4.60683C93.6507 4.042 92.6204 3.5889 91.5031 3.24752C90.6776 2.9951 89.7735 2.8689 88.7907 2.8689C76.3376 2.88338 64.1845 2.88648 52.3314 2.87821C52.2176 2.87821 52.1607 2.9351 52.1607 3.0489L52.1576 28.643C52.1576 28.7299 52.2011 28.7734 52.288 28.7734L54.0631 28.7796C54.1955 28.7796 54.2617 28.8458 54.2617 28.9782V38.0992C54.2617 38.211 54.2059 38.2668 54.0942 38.2668L52.3842 38.2637C52.2311 38.2617 52.1545 38.3372 52.1545 38.4903L52.1514 43.5613C52.1514 43.6668 52.2042 43.7196 52.3097 43.7196L62.5542 43.7227C62.5846 43.7227 62.6138 43.7103 62.6354 43.6882C62.6569 43.666 62.669 43.636 62.669 43.6048L62.6659 26.7499C62.6659 26.6175 62.7331 26.5513 62.8676 26.5513H79.0397C79.0865 26.5513 79.1325 26.563 79.1737 26.5852C79.2148 26.6074 79.2498 26.6395 79.2755 26.6786L80.5604 28.6027C80.5722 28.6205 80.579 28.6413 80.5799 28.6626C80.5808 28.684 80.576 28.7053 80.5658 28.7241C80.5555 28.7429 80.5404 28.7586 80.522 28.7695C80.5035 28.7803 80.4825 28.786 80.4611 28.7858L79.0738 28.7672C78.8917 28.7651 78.8452 28.8437 78.9342 29.003L83.459 36.9075C83.5169 37.0089 83.6038 37.0596 83.7197 37.0596L84.7997 37.0503C84.9238 37.0482 85.0148 37.102 85.0728 37.2117L88.4338 43.5644C88.4876 43.6679 88.5735 43.7196 88.6914 43.7196L99.33 43.7227C99.3451 43.723 99.3599 43.7194 99.373 43.712C99.3861 43.7047 99.3971 43.6939 99.4049 43.6808C99.4128 43.6677 99.4171 43.6526 99.4176 43.6371C99.418 43.6216 99.4146 43.6062 99.4076 43.5923L97.3004 39.502C97.2197 39.3427 97.2683 39.263 97.4462 39.263Z" stroke="#8AF93A" stroke-width="0.62069"/>
<path d="M104.662 27.6218C104.662 27.6531 104.649 27.6831 104.627 27.7052C104.605 27.7273 104.575 27.7397 104.544 27.7397L102.464 27.7335C102.449 27.7335 102.433 27.7366 102.419 27.7425C102.405 27.7484 102.392 27.7571 102.381 27.7681C102.37 27.779 102.361 27.792 102.355 27.8063C102.349 27.8206 102.346 27.836 102.346 27.8514V33.1335C102.346 33.149 102.349 33.1643 102.355 33.1786C102.361 33.193 102.37 33.206 102.381 33.2169C102.392 33.2279 102.405 33.2365 102.419 33.2425C102.433 33.2484 102.449 33.2515 102.464 33.2515L104.77 33.2266C104.786 33.2266 104.801 33.2297 104.815 33.2356C104.83 33.2415 104.843 33.2502 104.854 33.2612C104.864 33.2721 104.873 33.2851 104.879 33.2994C104.885 33.3137 104.888 33.3291 104.888 33.3446V43.5828C104.888 43.6141 104.9 43.6441 104.923 43.6662C104.945 43.6883 104.975 43.7008 105.006 43.7008H115.452C115.483 43.7008 115.513 43.6883 115.536 43.6662C115.558 43.6441 115.57 43.6141 115.57 43.5828L115.564 33.7666C115.564 33.7353 115.552 33.7053 115.529 33.6832C115.507 33.6611 115.477 33.6487 115.446 33.6487L113.066 33.6394C113.034 33.6394 113.004 33.627 112.982 33.6048C112.96 33.5827 112.948 33.5527 112.948 33.5214L112.951 27.9756C112.951 27.9443 112.963 27.9143 112.985 27.8922C113.007 27.8701 113.037 27.8577 113.069 27.8577H115.446C115.477 27.8577 115.507 27.8452 115.529 27.8231C115.552 27.801 115.564 27.771 115.564 27.7397L115.561 2.99903C115.561 2.96776 115.548 2.93776 115.526 2.91564C115.504 2.89353 115.474 2.8811 115.443 2.8811H104.776C104.745 2.8811 104.715 2.89353 104.693 2.91564C104.671 2.93776 104.658 2.96776 104.658 2.99903L104.662 27.6218Z" stroke="#8AF93A" stroke-width="0.62069"/>
<path d="M121.61 37.5466C121.629 37.546 121.648 37.5505 121.665 37.5598C121.682 37.5691 121.696 37.5828 121.705 37.5993C121.715 37.6159 121.72 37.6348 121.719 37.6539C121.719 37.6731 121.713 37.6918 121.703 37.708L117.96 43.5394C117.951 43.5552 117.945 43.5733 117.945 43.5919C117.944 43.6105 117.948 43.6289 117.957 43.6453C117.966 43.6617 117.979 43.6755 117.995 43.6852C118.011 43.6949 118.029 43.7003 118.047 43.7008H128.357C128.373 43.7005 128.39 43.6965 128.404 43.6889C128.419 43.6814 128.431 43.6706 128.441 43.6573L133.707 36.4139C133.719 36.3982 133.726 36.3798 133.727 36.3605C133.729 36.3412 133.725 36.3219 133.716 36.3046C133.708 36.2873 133.695 36.2727 133.678 36.2624C133.662 36.2521 133.643 36.2466 133.624 36.2463L131.482 36.2618C131.463 36.2617 131.444 36.2564 131.428 36.2465C131.412 36.2366 131.398 36.2224 131.39 36.2056C131.381 36.1887 131.376 36.1697 131.377 36.1506C131.378 36.1316 131.385 36.1131 131.395 36.0973L140.852 21.5918C140.861 21.5765 140.874 21.564 140.89 21.5553C140.906 21.5466 140.924 21.5421 140.942 21.5421L144.098 21.5608C144.116 21.5608 144.133 21.5563 144.149 21.5476C144.165 21.5389 144.178 21.5264 144.188 21.5111L147.754 15.8659C147.763 15.8512 147.776 15.8391 147.792 15.8307C147.807 15.8223 147.824 15.818 147.842 15.818C147.86 15.818 147.877 15.8223 147.892 15.8307C147.908 15.8391 147.921 15.8512 147.93 15.8659L156.049 28.4473C156.059 28.4626 156.072 28.4751 156.088 28.4838C156.103 28.4925 156.121 28.497 156.139 28.497H167.74C167.759 28.4974 167.778 28.4926 167.795 28.4829C167.812 28.4732 167.826 28.4591 167.835 28.4421C167.844 28.4251 167.849 28.4059 167.848 28.3866C167.847 28.3673 167.841 28.3485 167.83 28.3325L151.251 2.92766C151.242 2.91341 151.229 2.90172 151.213 2.89361C151.198 2.8855 151.181 2.8812 151.164 2.8811H144.473C144.456 2.8812 144.439 2.8855 144.424 2.89361C144.409 2.90172 144.396 2.91341 144.386 2.92766L136.836 14.5532C136.826 14.5674 136.813 14.5791 136.798 14.5872C136.783 14.5953 136.766 14.5996 136.749 14.5997L128.562 14.5904C128.542 14.5903 128.522 14.5957 128.506 14.6062C128.489 14.6166 128.475 14.6316 128.466 14.6494C128.458 14.6673 128.454 14.6872 128.456 14.707C128.458 14.7267 128.466 14.7455 128.478 14.7611L130.533 17.4456C130.543 17.4583 130.555 17.4685 130.57 17.4755C130.584 17.4825 130.6 17.4861 130.616 17.4859L134.604 17.4797C134.623 17.4796 134.642 17.4846 134.658 17.4941C134.674 17.5037 134.688 17.5174 134.697 17.5338C134.706 17.5503 134.711 17.569 134.71 17.5878C134.71 17.6067 134.704 17.6251 134.694 17.6411L132.457 21.2349C132.447 21.2502 132.434 21.2627 132.418 21.2714C132.402 21.2801 132.385 21.2846 132.367 21.2846L131.035 21.2814C131.018 21.2815 131.001 21.2858 130.986 21.294C130.971 21.3021 130.958 21.3138 130.948 21.328L120.164 37.4349C120.153 37.4512 120.147 37.4702 120.146 37.4898C120.145 37.5094 120.15 37.5289 120.159 37.546C120.169 37.5631 120.183 37.5771 120.201 37.5866C120.218 37.596 120.237 37.6004 120.257 37.5994L121.61 37.5466Z" stroke="#8AF93A" stroke-width="0.62069"/>
<path d="M46.6272 42.2737L9.62171 42.2675C9.30309 42.2675 9.28446 42.343 9.56584 42.4941C11.0865 43.3041 12.7593 43.7292 14.4879 43.7261C26.2314 43.722 37.8879 43.722 49.4576 43.7261C49.5037 43.7261 49.5479 43.7078 49.5805 43.6752C49.613 43.6426 49.6314 43.5984 49.6314 43.5523L49.6283 35.713C49.6283 35.6427 49.5931 35.6075 49.5227 35.6075C39.2358 35.6075 28.8879 35.6065 18.4789 35.6044C16.5424 35.6044 14.8603 34.2389 14.8696 32.2279C14.8841 29.0499 14.8862 25.9827 14.8758 23.0261C14.8758 22.9061 14.9348 22.8461 15.0527 22.8461L18.1531 22.8616C18.1786 22.8616 18.2031 22.8515 18.2211 22.8335C18.2392 22.8154 18.2493 22.791 18.2493 22.7654L18.2462 12.0554C18.2462 12.02 18.2602 11.9861 18.2853 11.9611C18.3103 11.9361 18.3442 11.922 18.3796 11.922L49.5196 11.9251C49.592 11.9251 49.6283 11.8879 49.6283 11.8134L49.6314 3.29751C49.6314 3.26706 49.6193 3.23785 49.5977 3.21632C49.5762 3.19478 49.547 3.18268 49.5165 3.18268C37.4193 3.19303 25.5289 3.192 13.8455 3.17958C12.0424 3.17648 10.261 3.62337 8.84584 4.68165C6.06929 6.75889 4.45964 9.35131 4.01688 12.4589C4.01199 12.4936 4.01451 12.529 4.02427 12.5626C4.03403 12.5962 4.0508 12.6273 4.07345 12.6538C4.0961 12.6802 4.1241 12.7015 4.15556 12.716C4.18703 12.7306 4.22122 12.7382 4.25584 12.7382H7.4524C7.55998 12.7382 7.61378 12.793 7.61378 12.9027L7.61688 21.6141C7.61688 21.7423 7.55274 21.8065 7.42446 21.8065L3.98895 21.791C3.95602 21.791 3.92445 21.8044 3.90117 21.8282C3.87789 21.8521 3.86481 21.8845 3.86481 21.9182C3.89998 24.8748 3.89584 28.1406 3.8524 31.7158C3.82964 33.4848 3.98791 34.9248 4.32722 36.0358C4.88998 37.8751 5.87895 39.4848 7.29412 40.8648C7.57033 41.1316 7.83102 41.3737 8.24067 41.3737C20.5014 41.3696 32.9658 41.3675 45.6341 41.3675C45.8348 41.3675 46.0096 41.4348 46.1586 41.5692L46.7079 42.0658C46.861 42.2044 46.8341 42.2737 46.6272 42.2737Z" stroke="#8AF93A" stroke-width="0.62069"/>
<path d="M159.991 34.7199L165.685 43.5461C165.754 43.6495 165.85 43.7013 165.974 43.7013H177.665C177.762 43.7013 177.784 43.6609 177.73 43.5802L169.487 30.974C169.452 30.9197 169.404 30.875 169.347 30.8441C169.29 30.8132 169.226 30.7971 169.161 30.7971C165.607 30.7992 161.976 30.8013 158.268 30.8033C158.069 30.8033 157.874 30.9057 157.728 31.033C157.641 31.1075 157.541 31.1447 157.427 31.1447L155.903 31.1416C155.775 31.1416 155.711 31.2057 155.711 31.334V34.394C155.711 34.5037 155.766 34.5585 155.875 34.5585L159.686 34.5554C159.747 34.5553 159.807 34.5704 159.86 34.5991C159.913 34.6279 159.958 34.6694 159.991 34.7199Z" stroke="#8AF93A" stroke-width="0.62069"/>
<path d="M54.7426 9.70306C54.7426 9.65943 54.7253 9.6176 54.6944 9.58675C54.6636 9.5559 54.6217 9.53857 54.5781 9.53857H54.2119C54.1683 9.53857 54.1264 9.5559 54.0956 9.58675C54.0647 9.6176 54.0474 9.65943 54.0474 9.70306V26.5982C54.0474 26.6419 54.0647 26.6837 54.0956 26.7145C54.1264 26.7454 54.1683 26.7627 54.2119 26.7627H54.5781C54.6217 26.7627 54.6636 26.7454 54.6944 26.7145C54.7253 26.6837 54.7426 26.6419 54.7426 26.5982V9.70306Z" stroke="#8AF93A" stroke-width="0.62069"/>
<path d="M65.0464 13.2959C65.0468 13.3113 65.0441 13.3265 65.0386 13.3408C65.033 13.3551 65.0246 13.3681 65.0139 13.3791C65.0032 13.3901 64.9904 13.3989 64.9762 13.4048C64.9621 13.4108 64.9469 13.4139 64.9316 13.4139L62.9298 13.4014C62.9051 13.4014 62.8807 13.4064 62.8579 13.4159C62.8351 13.4255 62.8144 13.4395 62.7971 13.4571C62.7797 13.4747 62.7661 13.4956 62.7569 13.5185C62.7477 13.5415 62.7432 13.566 62.7436 13.5908L62.7592 17.5508C62.7612 17.6873 62.8305 17.7556 62.9671 17.7556C71.1271 17.7639 78.9364 17.7597 86.395 17.7432C87.6695 17.7411 88.3367 17.1132 88.3967 15.8594C88.4381 15.0008 88.4433 14.0335 88.4123 12.9577C88.3843 11.9025 87.6147 11.2042 86.5936 11.2042C79.3481 11.2021 72.235 11.2001 65.2543 11.198C65.0991 11.198 65.0226 11.2745 65.0247 11.4277L65.0464 13.2959Z" stroke="#8AF93A" stroke-width="0.62069"/>
<path d="M107.167 5.55915C107.167 5.53266 107.161 5.50642 107.151 5.48195C107.141 5.45748 107.126 5.43524 107.107 5.41651C107.089 5.39777 107.066 5.38291 107.042 5.37278C107.018 5.36264 106.991 5.35742 106.965 5.35742H106.661C106.634 5.35742 106.608 5.36264 106.583 5.37278C106.559 5.38291 106.537 5.39777 106.518 5.41651C106.499 5.43524 106.484 5.45748 106.474 5.48195C106.464 5.50642 106.459 5.53266 106.459 5.55915V25.6323C106.459 25.6587 106.464 25.685 106.474 25.7094C106.484 25.7339 106.499 25.7562 106.518 25.7749C106.537 25.7936 106.559 25.8085 106.583 25.8186C106.608 25.8288 106.634 25.834 106.661 25.834H106.965C106.991 25.834 107.018 25.8288 107.042 25.8186C107.066 25.8085 107.089 25.7936 107.107 25.7749C107.126 25.7562 107.141 25.7339 107.151 25.7094C107.161 25.685 107.167 25.6587 107.167 25.6323V5.55915Z" stroke="#8AF93A" stroke-width="0.62069"/>
<path d="M97.3008 39.5022L99.4081 43.5926C99.4151 43.6064 99.4185 43.6219 99.418 43.6374C99.4176 43.6529 99.4132 43.6679 99.4054 43.681C99.3976 43.6942 99.3866 43.7049 99.3735 43.7123C99.3603 43.7196 99.3455 43.7233 99.3305 43.7229L88.6919 43.7198C88.5739 43.7198 88.4881 43.6681 88.4343 43.5647L85.0732 37.2119C85.0153 37.1022 84.9243 37.0485 84.8001 37.0505L83.7201 37.0598C83.6043 37.0598 83.5174 37.0091 83.4594 36.9078L78.9346 29.0033C78.8457 28.844 78.8922 28.7653 79.0743 28.7674L80.4615 28.786C80.4829 28.7862 80.504 28.7806 80.5224 28.7697C80.5409 28.7588 80.556 28.7432 80.5662 28.7243C80.5764 28.7055 80.5813 28.6843 80.5804 28.6629C80.5794 28.6415 80.5727 28.6208 80.5608 28.6029L79.276 26.6788C79.2503 26.6397 79.2153 26.6076 79.1741 26.5854C79.1329 26.5632 79.0869 26.5516 79.0401 26.5516H62.8681C62.7336 26.5516 62.6663 26.6178 62.6663 26.7502L62.6694 43.605C62.6694 43.6363 62.6573 43.6663 62.6358 43.6884C62.6143 43.7105 62.5851 43.7229 62.5546 43.7229L52.3101 43.7198C52.2046 43.7198 52.1519 43.6671 52.1519 43.5616L52.155 38.4905C52.155 38.3374 52.2315 38.2619 52.3846 38.264L54.0946 38.2671C54.2063 38.2671 54.2622 38.2112 54.2622 38.0995V28.9785C54.2622 28.846 54.196 28.7798 54.0636 28.7798L52.2884 28.7736C52.2015 28.7736 52.1581 28.7302 52.1581 28.6433L52.1612 3.04914C52.1612 2.93535 52.2181 2.87845 52.3319 2.87845C64.185 2.88673 76.3381 2.88362 88.7912 2.86914C89.7739 2.86914 90.6781 2.99535 91.5036 3.24776C92.6208 3.58914 93.6512 4.04224 94.5946 4.60707C97.7012 6.46914 99.0605 9.09466 98.9488 12.5985C98.9012 14.1067 98.9001 15.5664 98.9457 16.9774C98.9767 17.9333 98.8557 18.826 98.5825 19.6557C97.4032 23.2495 94.8874 25.4902 91.035 26.3778C90.826 26.4274 90.797 26.5278 90.9481 26.6788C90.9956 26.7243 91.0515 26.746 91.1157 26.744C91.277 26.7419 91.3981 26.8102 91.4788 26.9488L93.4401 30.2571C93.5353 30.4164 93.4898 30.5022 93.3036 30.5147C93.0946 30.5291 92.895 30.5116 92.7046 30.4619C92.3508 30.3709 92.2608 30.4867 92.4346 30.8095L95.4388 36.346C95.5091 36.4764 95.6177 36.5405 95.7646 36.5385L99.6874 36.526C99.7577 36.526 99.7929 36.5612 99.7929 36.6316L99.8053 39.2105C99.8053 39.2498 99.7857 39.2695 99.7463 39.2695L97.4467 39.2633C97.2688 39.2633 97.2201 39.3429 97.3008 39.5022ZM54.7432 9.70293C54.7432 9.65931 54.7259 9.61747 54.6951 9.58663C54.6642 9.55578 54.6224 9.53845 54.5788 9.53845H54.2125C54.1689 9.53845 54.1271 9.55578 54.0962 9.58663C54.0654 9.61747 54.0481 9.65931 54.0481 9.70293V26.5981C54.0481 26.6417 54.0654 26.6836 54.0962 26.7144C54.1271 26.7453 54.1689 26.7626 54.2125 26.7626H54.5788C54.6224 26.7626 54.6642 26.7453 54.6951 26.7144C54.7259 26.6836 54.7432 26.6417 54.7432 26.5981V9.70293ZM65.0467 13.2967C65.0471 13.3121 65.0444 13.3273 65.0389 13.3416C65.0333 13.3559 65.0249 13.3689 65.0142 13.3799C65.0035 13.3909 64.9907 13.3997 64.9765 13.4056C64.9624 13.4116 64.9472 13.4147 64.9319 13.4147L62.9301 13.4022C62.9054 13.4022 62.8809 13.4072 62.8582 13.4167C62.8354 13.4263 62.8147 13.4403 62.7974 13.4579C62.78 13.4755 62.7664 13.4964 62.7572 13.5193C62.748 13.5423 62.7435 13.5668 62.7439 13.5916L62.7594 17.5516C62.7615 17.6881 62.8308 17.7564 62.9674 17.7564C71.1274 17.7647 78.9367 17.7605 86.3953 17.744C87.6698 17.7419 88.337 17.114 88.397 15.8602C88.4384 15.0016 88.4436 14.0343 88.4126 12.9585C88.3846 11.9033 87.615 11.205 86.5939 11.205C79.3484 11.2029 72.2353 11.2009 65.2546 11.1988C65.0994 11.1988 65.0229 11.2753 65.025 11.4285L65.0467 13.2967Z" fill="#8AF93A"/>
<path d="M104.663 27.622L104.66 2.99928C104.66 2.968 104.672 2.93801 104.695 2.91589C104.717 2.89377 104.747 2.88135 104.778 2.88135H115.444C115.476 2.88135 115.506 2.89377 115.528 2.91589C115.55 2.93801 115.562 2.968 115.562 2.99928L115.565 27.74C115.565 27.7712 115.553 27.8012 115.531 27.8234C115.509 27.8455 115.479 27.8579 115.448 27.8579H113.07C113.039 27.8579 113.009 27.8703 112.987 27.8924C112.965 27.9146 112.952 27.9446 112.952 27.9758L112.949 33.5217C112.949 33.553 112.962 33.583 112.984 33.6051C113.006 33.6272 113.036 33.6396 113.067 33.6396L115.448 33.6489C115.479 33.6489 115.509 33.6614 115.531 33.6835C115.553 33.7056 115.565 33.7356 115.565 33.7669L115.572 43.5831C115.572 43.6143 115.559 43.6443 115.537 43.6665C115.515 43.6886 115.485 43.701 115.454 43.701H105.008C104.976 43.701 104.946 43.6886 104.924 43.6665C104.902 43.6443 104.89 43.6143 104.89 43.5831V33.3448C104.89 33.3293 104.887 33.314 104.881 33.2997C104.875 33.2854 104.866 33.2724 104.855 33.2614C104.844 33.2505 104.831 33.2418 104.817 33.2358C104.803 33.2299 104.787 33.2269 104.772 33.2269L102.466 33.2517C102.45 33.2517 102.435 33.2486 102.421 33.2427C102.406 33.2368 102.393 33.2281 102.382 33.2172C102.371 33.2062 102.363 33.1932 102.357 33.1789C102.351 33.1646 102.348 33.1492 102.348 33.1338V27.8517C102.348 27.8362 102.351 27.8209 102.357 27.8066C102.363 27.7923 102.371 27.7793 102.382 27.7683C102.393 27.7574 102.406 27.7487 102.421 27.7427C102.435 27.7368 102.45 27.7338 102.466 27.7338L104.545 27.74C104.576 27.74 104.606 27.7275 104.629 27.7054C104.651 27.6833 104.663 27.6533 104.663 27.622ZM107.168 5.55962C107.168 5.53313 107.162 5.5069 107.152 5.48243C107.142 5.45795 107.127 5.43572 107.108 5.41698C107.09 5.39825 107.068 5.38339 107.043 5.37325C107.019 5.36312 106.992 5.3579 106.966 5.3579H106.662C106.635 5.3579 106.609 5.36312 106.584 5.37325C106.56 5.38339 106.538 5.39825 106.519 5.41698C106.5 5.43572 106.485 5.45795 106.475 5.48243C106.465 5.5069 106.46 5.53313 106.46 5.55962V25.6327C106.46 25.6592 106.465 25.6855 106.475 25.7099C106.485 25.7344 106.5 25.7566 106.519 25.7754C106.538 25.7941 106.56 25.809 106.584 25.8191C106.609 25.8292 106.635 25.8345 106.662 25.8345H106.966C106.992 25.8345 107.019 25.8292 107.043 25.8191C107.068 25.809 107.09 25.7941 107.108 25.7754C107.127 25.7566 107.142 25.7344 107.152 25.7099C107.162 25.6855 107.168 25.6592 107.168 25.6327V5.55962Z" fill="#8AF93A"/>
<path d="M121.611 37.5469L120.257 37.5996C120.238 37.6007 120.218 37.5963 120.201 37.5868C120.184 37.5774 120.17 37.5633 120.16 37.5462C120.15 37.5291 120.146 37.5097 120.146 37.4901C120.147 37.4704 120.153 37.4514 120.164 37.4351L130.949 21.3282C130.958 21.314 130.971 21.3023 130.987 21.2942C131.002 21.2861 131.019 21.2818 131.036 21.2817L132.367 21.2848C132.385 21.2849 132.403 21.2804 132.419 21.2717C132.434 21.263 132.448 21.2504 132.457 21.2351L134.695 17.6413C134.705 17.6253 134.71 17.6069 134.711 17.5881C134.711 17.5692 134.707 17.5506 134.697 17.5341C134.688 17.5176 134.675 17.5039 134.658 17.4944C134.642 17.4849 134.624 17.4799 134.605 17.48L130.617 17.4862C130.601 17.4863 130.585 17.4827 130.57 17.4757C130.556 17.4687 130.543 17.4585 130.533 17.4458L128.479 14.7613C128.466 14.7457 128.459 14.727 128.457 14.7072C128.454 14.6874 128.458 14.6675 128.467 14.6497C128.476 14.6318 128.489 14.6168 128.506 14.6064C128.523 14.596 128.542 14.5905 128.562 14.5907L136.749 14.6C136.766 14.5999 136.783 14.5956 136.798 14.5875C136.814 14.5794 136.827 14.5677 136.836 14.5534L144.387 2.9279C144.396 2.91365 144.409 2.90196 144.424 2.89385C144.44 2.88574 144.457 2.88145 144.474 2.88135H151.165C151.182 2.88145 151.199 2.88574 151.214 2.89385C151.229 2.90196 151.242 2.91365 151.252 2.9279L167.83 28.3327C167.841 28.3488 167.847 28.3675 167.848 28.3868C167.849 28.4062 167.845 28.4254 167.835 28.4424C167.826 28.4594 167.812 28.4735 167.795 28.4831C167.779 28.4928 167.76 28.4977 167.74 28.4972H156.14C156.122 28.4973 156.104 28.4928 156.088 28.4841C156.072 28.4754 156.059 28.4628 156.05 28.4476L147.931 15.8662C147.921 15.8514 147.908 15.8393 147.893 15.831C147.877 15.8226 147.86 15.8182 147.842 15.8182C147.825 15.8182 147.808 15.8226 147.792 15.831C147.777 15.8393 147.764 15.8514 147.754 15.8662L144.188 21.5113C144.179 21.5266 144.165 21.5392 144.15 21.5479C144.134 21.5566 144.116 21.5611 144.098 21.561L140.942 21.5424C140.924 21.5423 140.906 21.5468 140.891 21.5555C140.875 21.5642 140.861 21.5768 140.852 21.592L131.396 36.0976C131.385 36.1134 131.379 36.1318 131.378 36.1509C131.377 36.1699 131.381 36.1889 131.39 36.2058C131.399 36.2227 131.412 36.2368 131.429 36.2467C131.445 36.2566 131.464 36.2619 131.483 36.262L133.624 36.2465C133.643 36.2468 133.662 36.2524 133.679 36.2627C133.695 36.273 133.708 36.2875 133.717 36.3048C133.726 36.3221 133.729 36.3415 133.728 36.3607C133.726 36.38 133.719 36.3985 133.708 36.4141L128.441 43.6576C128.432 43.6708 128.419 43.6816 128.405 43.6892C128.39 43.6967 128.374 43.7008 128.357 43.701H118.048C118.029 43.7005 118.011 43.6952 117.995 43.6854C117.979 43.6757 117.966 43.6619 117.958 43.6455C117.949 43.6292 117.944 43.6107 117.945 43.5921C117.946 43.5735 117.951 43.5554 117.961 43.5396L121.704 37.7082C121.714 37.692 121.719 37.6733 121.72 37.6542C121.72 37.635 121.715 37.6162 121.706 37.5996C121.696 37.583 121.682 37.5693 121.665 37.5601C121.649 37.5508 121.63 37.5462 121.611 37.5469Z" fill="#8AF93A"/>
<path d="M46.6288 42.274C46.8357 42.274 46.8626 42.2046 46.7095 42.066L46.1602 41.5695C46.0112 41.435 45.8364 41.3678 45.6357 41.3678C32.9674 41.3678 20.5029 41.3698 8.24226 41.374C7.8326 41.374 7.57191 41.1319 7.29571 40.865C5.88053 39.485 4.89157 37.8753 4.32881 36.036C3.9895 34.925 3.83122 33.485 3.85398 31.716C3.89743 28.1409 3.90157 24.875 3.8664 21.9184C3.8664 21.8847 3.87948 21.8523 3.90276 21.8285C3.92604 21.8046 3.95761 21.7912 3.99053 21.7912L7.42605 21.8067C7.55433 21.8067 7.61847 21.7426 7.61847 21.6143L7.61536 12.9029C7.61536 12.7933 7.56157 12.7384 7.45398 12.7384H4.25743C4.22281 12.7384 4.18862 12.7309 4.15715 12.7163C4.12569 12.7017 4.09768 12.6805 4.07504 12.654C4.05239 12.6275 4.03562 12.5965 4.02586 12.5628C4.0161 12.5292 4.01358 12.4939 4.01847 12.4591C4.46122 9.35155 6.07088 6.75914 8.84743 4.68189C10.2626 3.62362 12.044 3.17672 13.8471 3.17983C25.5305 3.19224 37.4209 3.19327 49.5181 3.18293C49.5486 3.18293 49.5778 3.19503 49.5993 3.21656C49.6208 3.2381 49.6329 3.2673 49.6329 3.29776L49.6298 11.8136C49.6298 11.8881 49.5936 11.9253 49.5212 11.9253L18.3812 11.9222C18.3458 11.9222 18.3119 11.9363 18.2869 11.9613C18.2618 11.9864 18.2478 12.0203 18.2478 12.0557L18.2509 22.7657C18.2509 22.7912 18.2407 22.8157 18.2227 22.8337C18.2047 22.8518 18.1802 22.8619 18.1547 22.8619L15.0543 22.8464C14.9364 22.8464 14.8774 22.9064 14.8774 23.0264C14.8878 25.9829 14.8857 29.0502 14.8712 32.2281C14.8619 34.2391 16.544 35.6046 18.4805 35.6046C28.8895 35.6067 39.2374 35.6077 49.5243 35.6077C49.5947 35.6077 49.6298 35.6429 49.6298 35.7133L49.6329 43.5526C49.6329 43.5987 49.6146 43.6429 49.582 43.6755C49.5494 43.7081 49.5052 43.7264 49.4592 43.7264C37.8895 43.7222 26.2329 43.7222 14.4895 43.7264C12.7609 43.7295 11.0881 43.3043 9.56743 42.4943C9.28605 42.3433 9.30467 42.2678 9.62329 42.2678L46.6288 42.274Z" fill="#8AF93A"/>
<path d="M106.966 5.35889H106.662C106.551 5.35889 106.461 5.4492 106.461 5.56061V25.6337C106.461 25.7451 106.551 25.8354 106.662 25.8354H106.966C107.078 25.8354 107.168 25.7451 107.168 25.6337V5.56061C107.168 5.4492 107.078 5.35889 106.966 5.35889Z" fill="#1E1E1E"/>
<path d="M54.5797 9.53894H54.2135C54.1226 9.53894 54.049 9.61258 54.049 9.70342V26.5986C54.049 26.6894 54.1226 26.7631 54.2135 26.7631H54.5797C54.6705 26.7631 54.7442 26.6894 54.7442 26.5986V9.70342C54.7442 9.61258 54.6705 9.53894 54.5797 9.53894Z" fill="#1E1E1E"/>
<path d="M65.0469 13.2962L65.0251 11.4279C65.0231 11.2748 65.0996 11.1982 65.2548 11.1982C72.2355 11.2003 79.3486 11.2024 86.5941 11.2044C87.6151 11.2044 88.3848 11.9027 88.4127 12.9579C88.4438 14.0338 88.4386 15.001 88.3972 15.8596C88.3372 17.1134 87.67 17.7413 86.3955 17.7434C78.9369 17.76 71.1276 17.7641 62.9676 17.7558C62.831 17.7558 62.7617 17.6876 62.7596 17.551L62.7441 13.591C62.7437 13.5663 62.7482 13.5417 62.7574 13.5188C62.7666 13.4958 62.7802 13.4749 62.7975 13.4573C62.8149 13.4397 62.8355 13.4257 62.8583 13.4162C62.8811 13.4066 62.9056 13.4017 62.9303 13.4017L64.932 13.4141C64.9474 13.4141 64.9626 13.411 64.9767 13.4051C64.9908 13.3991 65.0036 13.3904 65.0143 13.3794C65.0251 13.3684 65.0334 13.3554 65.039 13.3411C65.0446 13.3268 65.0473 13.3115 65.0469 13.2962Z" fill="#1E1E1E"/>
<path d="M159.992 34.7201C159.96 34.6696 159.915 34.6281 159.862 34.5994C159.809 34.5706 159.749 34.5556 159.688 34.5556L155.877 34.5587C155.767 34.5587 155.712 34.5039 155.712 34.3943V31.3343C155.712 31.206 155.777 31.1418 155.905 31.1418L157.429 31.145C157.542 31.145 157.643 31.1077 157.73 31.0332C157.876 30.906 158.071 30.8036 158.27 30.8036C161.977 30.8015 165.608 30.7994 169.163 30.7974C169.228 30.7973 169.291 30.8135 169.348 30.8444C169.405 30.8753 169.453 30.9199 169.489 30.9743L177.731 43.5805C177.785 43.6612 177.763 43.7015 177.666 43.7015H165.976C165.851 43.7015 165.755 43.6498 165.687 43.5463L159.992 34.7201Z" fill="#8AF93A"/>
</svg>
