<svg width="80" height="19" viewBox="0 0 80 19" fill="none" xmlns="http://www.w3.org/2000/svg">
<path d="M1.71841 1.3834C2.63287 0.539856 3.84054 0.081093 5.08801 0.103375H21.3312V4.23761H6.93121C6.8443 4.23978 6.75767 4.24829 6.67201 4.26305V9.32591H5.13601V13.4522C5.13353 13.689 5.17947 13.9239 5.27106 14.1426C5.36264 14.3612 5.49796 14.5591 5.66881 14.7243C5.83236 14.8918 6.02882 15.0241 6.24599 15.113C6.46315 15.2019 6.69639 15.2455 6.93121 15.241H21.3312V18.9793H5.08801C4.18951 18.9887 3.30621 18.7486 2.53761 18.2861H20.1728L19.6128 17.8711H1.93921C1.34302 17.4047 0.858322 16.8128 0.520009 16.1379C0.170405 15.4494 -0.00791767 14.6876 9.02117e-06 13.9165V8.76937H1.76001V4.61128H0.038409C0.17951 3.36649 0.777693 2.21716 1.71841 1.3834Z" fill="white"/>
<path d="M42.72 15.637H44.7248V16.944H43.4448L44.4992 18.8521H39.5648L37.92 15.8834H37.216L34.9568 12.0418H35.7776L35.2 11.0066H27.4352V18.8585H22.5024V16.3875H23.4912V12.0163H22.5024V1.3626e-05H39.6224C40.461 -0.00364442 41.2847 0.22011 42.0048 0.647181C42.7091 1.06593 43.2975 1.65227 43.7168 2.35335C44.1457 3.06885 44.3672 3.88824 44.3568 4.72099V6.29837C44.3756 7.45573 43.9473 8.57622 43.16 9.42925C42.3784 10.2959 41.3043 10.848 40.1408 10.9812L40.1536 11.0066H40.7136L41.8032 12.8798H41.192L42.72 15.637ZM23.712 3.09115H23.36V11.0591H23.7104L23.712 3.09115ZM39.448 4.90227C39.448 4.62098 39.3356 4.35121 39.1355 4.15231C38.9353 3.95341 38.6639 3.84167 38.3808 3.84167H28.5808V4.94043H27.4352V6.95825H38.3808C38.6639 6.95825 38.9353 6.84651 39.1355 6.64761C39.3356 6.44871 39.448 6.17895 39.448 5.89766V4.90227Z" fill="white"/>
<path d="M50.7696 11.525H52V14.0596H50.776V19H45.896V14.3315H47.1328V11.6077H45.896V0.116089H50.776L50.7696 11.525ZM50.0672 1.11308H49.7472V10.6966H50.0672V1.11308Z" fill="#00E800"/>
<path d="M56.7041 11.9511L64.4801 0.12882V0.0652161H67.6161V0.12882L71.1569 5.50969H75.0865L74.1265 6.71339H71.9441L73.2241 8.6533H73.9665L78.8993 16.0122H78.0657L80.0001 18.9746H75.2113L72.6401 15.5336H73.8769L69.2897 8.66602L67.8497 8.64058L66.0481 5.91039L62.1441 11.9527L56.7041 11.9511ZM61.4401 13.0245L61.3361 13.1835H62.3377V14.6575H60.3857L57.6001 18.9746H52.0833L55.9889 13.0245H61.4401Z" fill="#00E800"/>
</svg>
